# Blender 3.3.0
# www.blender.org
mtllib reel.mtl
o Cylinder
v -0.260141 0.258819 -0.965926
v 0.260141 0.258819 -0.965926
v -0.260141 -0.258819 -0.965926
v 0.260141 -0.258819 -0.965926
v -0.260141 -0.707107 -0.707107
v 0.260141 -0.707107 -0.707107
v -0.260141 -0.965926 -0.258819
v 0.260141 -0.965926 -0.258819
v -0.260141 -0.965926 0.258819
v 0.260141 -0.965926 0.258819
v -0.260141 -0.707107 0.707107
v 0.260141 -0.707107 0.707106
v -0.260141 -0.258819 0.965926
v 0.260141 -0.258819 0.965926
v -0.260141 0.258819 0.965926
v 0.260141 0.258819 0.965926
v -0.260141 0.707107 0.707107
v 0.260141 0.707107 0.707107
v -0.260141 0.965926 0.258819
v 0.260141 0.965926 0.258819
v -0.260141 0.965926 -0.258819
v 0.260141 0.965926 -0.258819
v -0.260141 0.707107 -0.707106
v 0.260141 0.707107 -0.707107
vn -0.0000 -0.0000 -1.0000
vn -0.0000 -0.5000 -0.8660
vn -0.0000 -0.8660 -0.5000
vn -0.0000 -1.0000 -0.0000
vn -0.0000 -0.8660 0.5000
vn -0.0000 -0.5000 0.8660
vn -0.0000 -0.0000 1.0000
vn -0.0000 0.5000 0.8660
vn -0.0000 0.8660 0.5000
vn -0.0000 1.0000 -0.0000
vn 1.0000 -0.0000 -0.0000
vn -0.0000 0.8660 -0.5000
vn -0.0000 0.5000 -0.8660
vn -1.0000 -0.0000 -0.0000
vt 0.254004 0.997241
vt 0.750805 -0.000342
vt 0.946609 0.873140
vt 0.004207 0.997241
vt 0.852380 0.847905
vt 0.498822 -0.000342
vt 0.254004 0.748713
vt 0.946609 0.891613
vt 0.004207 0.748713
vt 0.833907 0.847905
vt 0.254004 0.500186
vt 0.937372 0.907612
vt 0.004207 0.500186
vt 0.817909 0.857141
vt 0.254004 0.251658
vt 0.921374 0.916848
vt 0.004207 0.251658
vt 0.808672 0.873140
vt 0.254004 0.003130
vt 0.502021 0.998057
vt 0.902901 0.916848
vt 0.004207 0.003130
vt 0.251475 0.998057
vt 0.808672 0.891613
vt 0.502021 0.748784
vt 0.886902 0.907612
vt 0.251476 0.748784
vt 0.817909 0.907612
vt 0.502021 0.499512
vt 0.877665 0.891613
vt 0.251476 0.499512
vt 0.833907 0.916848
vt 0.502021 0.250239
vt 0.877665 0.873140
vt 0.251476 0.250239
vt 0.852380 0.916848
vt 0.502021 0.000967
vt 0.750805 1.002466
vt 0.886902 0.857141
vt 0.251475 0.000967
vt 0.498822 1.002466
vt 0.868379 0.907612
vt 0.750805 0.751764
vt 0.902901 0.847905
vt 0.498822 0.751764
vt 0.877616 0.891613
vt 0.750805 0.501062
vt 0.921374 0.847905
vt 0.877616 0.873140
vt 0.498822 0.501062
vt 0.750805 0.250360
vt 0.937372 0.857141
vt 0.868379 0.857141
vt 0.498822 0.250360
s 0
usemtl Material.001
f 1/1/1 2/4/1 4/9/1 3/7/1
f 3/7/2 4/9/2 6/13/2 5/11/2
f 5/11/3 6/13/3 8/17/3 7/15/3
f 7/15/4 8/17/4 10/22/4 9/19/4
f 9/20/5 10/23/5 12/27/5 11/25/5
f 11/25/6 12/27/6 14/31/6 13/29/6
f 13/29/7 14/31/7 16/35/7 15/33/7
f 15/33/8 16/35/8 18/40/8 17/37/8
f 17/38/9 18/41/9 20/45/9 19/43/9
f 19/43/10 20/45/10 22/50/10 21/47/10
f 4/10/11 2/5/11 24/53/11 22/49/11 20/46/11 18/42/11 16/36/11 14/32/11 12/28/11 10/24/11 8/18/11 6/14/11
f 21/47/12 22/50/12 24/54/12 23/51/12
f 23/51/13 24/54/13 2/6/13 1/2/13
f 1/3/14 3/8/14 5/12/14 7/16/14 9/21/14 11/26/14 13/30/14 15/34/14 17/39/14 19/44/14 21/48/14 23/52/14
